# xmcd
#
# Track frame offsets:
#	150
#	17295
#	35587
#
# Disc length: 744 seconds
#
# Revision: 0
# Processed by: cddbd v1.4PL0 Copyright (c) Steve Scherf et al.
# Submitted via: EasyCDDAExtractor 4.6.9.1
#
DISCID=1602e603
DTITLE=Faith Hill - Cry
DYEAR=2002
DGENRE=Pop
TTITLE0=Cry
TTITLE1=Wicked
TTITLE2=Shadows
EXTD=
EXTT0=
EXTT1=
EXTT2=
PLAYORDER=
